<svg xmlns="http://www.w3.org/2000/svg" width="900" height="330" viewBox="0 90 900 330" role="img">
<style>
  .bg{fill:#ffffff}
  .card{fill:#ffffff;stroke:#d5e3ee;stroke-width:2}
  .head{fill:#eaf6ff;stroke:#b7d7ee;stroke-width:1.5}
  .grid{stroke:#b7c7d4;stroke-width:1.4}
  .axis{stroke:#37a6d6;stroke-width:4;stroke-linecap:round}
  .line{stroke:#2aa879;stroke-width:4;stroke-linecap:round;fill:none}
  .pink{stroke:#d66bb6;stroke-width:4;stroke-linecap:round;fill:none}
  .thin{stroke:#73808c;stroke-width:2;fill:none}
  .txt{font-family:Arial, sans-serif;font-size:26px;fill:#243040}
  .small{font-family:Arial, sans-serif;font-size:20px;fill:#243040}
  .tiny{font-family:Arial, sans-serif;font-size:16px;fill:#243040}
  .title{font-family:Arial, sans-serif;font-size:32px;font-weight:700;fill:#1f3344}
  .dot{fill:#243040}
  .box{fill:#fef9db;stroke:#e8d17d;stroke-width:2}
  .blank{fill:#fffdf0;stroke:#e8d17d;stroke-width:2}
</style>
<rect class="bg" width="100%" height="100%"/>
<rect x="45" y="95" width="810" height="156" class="card"/><rect x="45" y="95" width="810" height="52" class="head"/><line x1="45.0" y1="95" x2="45.0" y2="251" class="grid"/><line x1="160.71428571428572" y1="95" x2="160.71428571428572" y2="251" class="grid"/><line x1="276.42857142857144" y1="95" x2="276.42857142857144" y2="251" class="grid"/><line x1="392.1428571428571" y1="95" x2="392.1428571428571" y2="251" class="grid"/><line x1="507.85714285714283" y1="95" x2="507.85714285714283" y2="251" class="grid"/><line x1="623.5714285714286" y1="95" x2="623.5714285714286" y2="251" class="grid"/><line x1="739.2857142857142" y1="95" x2="739.2857142857142" y2="251" class="grid"/><line x1="855.0" y1="95" x2="855.0" y2="251" class="grid"/><line x1="45" y1="95" x2="855" y2="95" class="grid"/><line x1="45" y1="147" x2="855" y2="147" class="grid"/><line x1="45" y1="199" x2="855" y2="199" class="grid"/><line x1="45" y1="251" x2="855" y2="251" class="grid"/><text x="102.85714285714286" y="130" text-anchor="middle" class="small" font-weight="700">Уменьшаемое</text><text x="218.57142857142858" y="130" text-anchor="middle" class="small" font-weight="700">46</text><text x="334.2857142857143" y="130" text-anchor="middle" class="small" font-weight="700">37</text><text x="449.99999999999994" y="130" text-anchor="middle" class="small" font-weight="700"></text><text x="565.7142857142857" y="130" text-anchor="middle" class="small" font-weight="700">63</text><text x="681.4285714285714" y="130" text-anchor="middle" class="small" font-weight="700"></text><text x="797.1428571428571" y="130" text-anchor="middle" class="small" font-weight="700"></text><text x="102.85714285714286" y="182" text-anchor="middle" class="small">Вычитаемое</text><text x="218.57142857142858" y="182" text-anchor="middle" class="small">26</text><text x="334.2857142857143" y="182" text-anchor="middle" class="small"></text><text x="449.99999999999994" y="182" text-anchor="middle" class="small">30</text><text x="565.7142857142857" y="182" text-anchor="middle" class="small"></text><text x="681.4285714285714" y="182" text-anchor="middle" class="small">33</text><text x="797.1428571428571" y="182" text-anchor="middle" class="small"></text><text x="102.85714285714286" y="234" text-anchor="middle" class="small">Разность</text><text x="218.57142857142858" y="234" text-anchor="middle" class="small"></text><text x="334.2857142857143" y="234" text-anchor="middle" class="small">27</text><text x="449.99999999999994" y="234" text-anchor="middle" class="small">25</text><text x="565.7142857142857" y="234" text-anchor="middle" class="small"></text><text x="681.4285714285714" y="234" text-anchor="middle" class="small">19</text><text x="797.1428571428571" y="234" text-anchor="middle" class="small"></text></svg>